<svg width="90" height="81" viewBox="0 0 90 81" fill="none" xmlns="http://www.w3.org/2000/svg">
<path d="M16.888 34.8323C17.8222 35.4216 19.0573 35.142 19.6466 34.2078C20.2359 33.2736 19.9563 32.0385 19.0221 31.4492L17.955 33.1407L16.888 34.8323ZM17.8705 33.0874L18.9375 31.3958L18.6903 31.2399L18.4089 31.1612L17.8705 33.0874ZM16.6869 32.7565L17.2254 30.8304V30.8304L16.6869 32.7565ZM14.7641 32.5618L15.1261 34.5287L14.7641 32.5618ZM14.0248 32.6978L14.3868 34.6648L14.0248 32.6978ZM13.2856 32.8338L12.9236 30.8668L13.2856 32.8338ZM11.9283 32.6638L12.816 30.8716L11.9283 32.6638ZM11.3103 32.3577L10.4226 34.1499L11.3103 32.3577ZM10.6923 32.0516L9.80464 33.8438L10.6923 32.0516ZM9.51118 31.3482L10.6641 29.714L9.51118 31.3482ZM8.94801 30.9509L7.79507 32.5851L8.94801 30.9509ZM6.81248 26.5334L5.91584 28.3212L6.81248 26.5334ZM5.52649 25.8885L6.42313 24.1007L5.52649 25.8885ZM4.85112 24.8473L6.84909 24.7573L4.85112 24.8473ZM4.78637 23.41L2.7884 23.5L4.78637 23.41ZM3.93978 21.6526L2.36571 22.8864L3.93978 21.6526ZM3.15953 19.9505L1.16214 19.8482L3.15953 19.9505ZM3.22746 18.6239L1.23008 18.5216L3.22746 18.6239ZM2.41485 15.1361L3.74137 13.6393L3.67446 13.58L3.60251 13.5269L2.41485 15.1361ZM2.0411 14.8602L0.213461 15.6725L0.428133 16.1555L0.853432 16.4694L2.0411 14.8602ZM3.82813 13.9566C3.37954 12.9472 2.19762 12.4926 1.18825 12.9412C0.17887 13.3898 -0.275739 14.5717 0.172849 15.5811L2.00049 14.7688L3.82813 13.9566ZM17.955 33.1407L19.0221 31.4492L18.9375 31.3958L17.8705 33.0874L16.8034 34.7789L16.888 34.8323L17.955 33.1407ZM17.8705 33.0874L18.4089 31.1612L17.2254 30.8304L16.6869 32.7565L16.1485 34.6827L17.332 35.0135L17.8705 33.0874ZM16.6869 32.7565L17.2254 30.8304C16.3075 30.5738 15.3261 30.4248 14.4022 30.5948L14.7641 32.5618L15.1261 34.5287C15.1879 34.5174 15.4883 34.4982 16.1485 34.6827L16.6869 32.7565ZM14.7641 32.5618L14.4022 30.5948L13.6629 30.7308L14.0248 32.6978L14.3868 34.6648L15.1261 34.5287L14.7641 32.5618ZM14.0248 32.6978L13.6629 30.7308L12.9236 30.8668L13.2856 32.8338L13.6475 34.8008L14.3868 34.6648L14.0248 32.6978ZM13.2856 32.8338L12.9236 30.8668C12.8588 30.8788 12.8292 30.8753 12.8252 30.8748C12.8236 30.8746 12.8228 30.8745 12.8226 30.8744C12.8225 30.8744 12.8224 30.8744 12.8224 30.8744C12.8224 30.8744 12.8225 30.8744 12.8224 30.8744C12.8224 30.8744 12.8224 30.8744 12.8222 30.8743C12.822 30.8743 12.8217 30.8741 12.8213 30.874C12.8204 30.8736 12.8187 30.8729 12.816 30.8716L11.9283 32.6638L11.0406 34.456C11.8746 34.8691 12.7706 34.9622 13.6475 34.8008L13.2856 32.8338ZM11.9283 32.6638L12.816 30.8716L12.198 30.5655L11.3103 32.3577L10.4226 34.1499L11.0406 34.456L11.9283 32.6638ZM11.3103 32.3577L12.198 30.5655L11.58 30.2594L10.6923 32.0516L9.80464 33.8438L10.4226 34.1499L11.3103 32.3577ZM10.6923 32.0516L11.58 30.2594C11.2603 30.101 10.9553 29.9194 10.6641 29.714L9.51118 31.3482L8.35823 32.9824C8.81794 33.3067 9.30035 33.594 9.80464 33.8438L10.6923 32.0516ZM9.51118 31.3482L10.6641 29.714L10.101 29.3166L8.94801 30.9509L7.79507 32.5851L8.35823 32.9824L9.51118 31.3482ZM8.94801 30.9509L10.101 29.3166L9.5378 28.9193L8.38485 30.5536L7.2319 32.1878L7.79507 32.5851L8.94801 30.9509ZM8.38485 30.5536L9.5378 28.9193C9.5679 28.9406 9.60069 28.969 9.63193 29.0044C9.66314 29.0397 9.68645 29.0748 9.70263 29.105C9.73508 29.1656 9.72576 29.1811 9.71793 29.1106L7.73013 29.3312L5.74233 29.5517C5.85243 30.5439 6.29362 31.5258 7.2319 32.1878L8.38485 30.5536ZM7.73013 29.3312L9.71793 29.1106L9.62638 28.2855L7.63858 28.5061L5.65078 28.7267L5.74233 29.5517L7.73013 29.3312ZM7.63858 28.5061L9.62638 28.2855L9.53483 27.4604L7.54703 27.681L5.55923 27.9016L5.65078 28.7267L7.63858 28.5061ZM7.54703 27.681L9.53483 27.4604C9.41252 26.3582 8.84508 25.3154 7.70912 24.7457L6.81248 26.5334L5.91584 28.3212C5.82723 28.2767 5.7157 28.1888 5.63314 28.0598C5.55764 27.9418 5.55531 27.8663 5.55923 27.9016L7.54703 27.681ZM6.81248 26.5334L7.70912 24.7457L7.06612 24.4232L6.16949 26.2109L5.27285 27.9987L5.91584 28.3212L6.81248 26.5334ZM6.16949 26.2109L7.06612 24.4232L6.42313 24.1007L5.52649 25.8885L4.62985 27.6762L5.27285 27.9987L6.16949 26.2109ZM5.52649 25.8885L6.42313 24.1007C6.47547 24.127 6.60401 24.2089 6.71405 24.3785C6.82409 24.5481 6.84646 24.6989 6.84909 24.7573L4.85112 24.8473L2.85315 24.9373C2.87736 25.4748 3.02309 26.0386 3.35825 26.5553C3.69342 27.072 4.14884 27.4349 4.62985 27.6762L5.52649 25.8885ZM4.85112 24.8473L6.84909 24.7573L6.81672 24.0386L4.81875 24.1286L2.82077 24.2186L2.85315 24.9373L4.85112 24.8473ZM4.81875 24.1286L6.81672 24.0386L6.78435 23.32L4.78637 23.41L2.7884 23.5L2.82077 24.2186L4.81875 24.1286ZM4.78637 23.41L6.78435 23.32C6.74579 22.4642 6.47266 21.642 5.92095 20.9381L4.34689 22.172L2.77282 23.4058C2.77527 23.4089 2.77559 23.4097 2.77507 23.4088C2.77454 23.4079 2.77473 23.4079 2.77555 23.4102C2.77667 23.4134 2.78567 23.4393 2.7884 23.5L4.78637 23.41ZM4.34689 22.172L5.92095 20.9381L5.51384 20.4188L3.93978 21.6526L2.36571 22.8864L2.77282 23.4058L4.34689 22.172ZM3.93978 21.6526L5.51384 20.4188L5.10673 19.8994L3.53267 21.1332L1.9586 22.367L2.36571 22.8864L3.93978 21.6526ZM3.53267 21.1332L5.10673 19.8994C5.10956 19.903 5.12856 19.9298 5.14315 19.9761C5.14981 19.9972 5.15361 20.0164 5.15548 20.0317C5.15732 20.0468 5.15683 20.0544 5.15691 20.0528L3.15953 19.9505L1.16214 19.8482C1.115 20.7689 1.38744 21.6384 1.9586 22.367L3.53267 21.1332ZM3.15953 19.9505L5.15691 20.0528L5.19088 19.3895L3.1935 19.2872L1.19611 19.1849L1.16214 19.8482L3.15953 19.9505ZM3.1935 19.2872L5.19088 19.3895L5.22485 18.7262L3.22746 18.6239L1.23008 18.5216L1.19611 19.1849L3.1935 19.2872ZM3.22746 18.6239L5.22485 18.7262C5.25469 18.1435 5.22284 17.5667 5.12314 16.9998L3.15337 17.3463L1.18361 17.6927C1.22798 17.945 1.24553 18.2199 1.23008 18.5216L3.22746 18.6239ZM3.15337 17.3463L5.12314 16.9998L5.01508 16.3855L3.04532 16.7319L1.07556 17.0784L1.18361 17.6927L3.15337 17.3463ZM3.04532 16.7319L5.01508 16.3855L4.90702 15.7711L2.93726 16.1176L0.9675 16.4641L1.07556 17.0784L3.04532 16.7319ZM2.93726 16.1176L4.90702 15.7711C4.85716 15.4876 4.78339 15.177 4.66453 14.8761C4.55392 14.5961 4.34712 14.1761 3.94855 13.8229L2.62202 15.3197L1.2955 16.8164C1.15739 16.694 1.07195 16.5759 1.02431 16.4998C0.976236 16.423 0.952428 16.3663 0.944318 16.3458C0.930538 16.3109 0.945328 16.338 0.9675 16.4641L2.93726 16.1176ZM2.62202 15.3197L3.94855 13.8229L3.74137 13.6393L2.41485 15.1361L1.08832 16.6328L1.2955 16.8164L2.62202 15.3197ZM2.41485 15.1361L3.60251 13.5269L3.22877 13.251L2.0411 14.8602L0.853432 16.4694L1.22718 16.7452L2.41485 15.1361ZM2.0411 14.8602L3.86874 14.048L3.82813 13.9566L2.00049 14.7688L0.172849 15.5811L0.213461 15.6725L2.0411 14.8602Z" fill="#3F2621"/>
<path d="M56.1113 53.6897C55.7597 52.6426 54.6258 52.0789 53.5787 52.4305C52.5316 52.7821 51.9678 53.916 52.3194 54.9631L54.2154 54.3264L56.1113 53.6897ZM54.2472 54.4212L56.247 54.3899L56.2421 54.0791L56.1432 53.7845L54.2472 54.4212ZM56.5657 59.7082L54.719 60.476L56.5657 59.7082ZM57.0813 62.9634L55.107 62.6437L57.0813 62.9634ZM57.196 64.9819L55.4927 66.0301L57.196 64.9819ZM57.8954 66.1184L59.5987 65.0702L57.8954 66.1184ZM58.5525 67.2691L56.7838 68.2027L58.5525 67.2691ZM58.8599 67.8515L57.0912 68.7851L58.8599 67.8515ZM59.1674 68.434L60.9361 67.5004L59.1674 68.434ZM59.7595 69.6065L61.5608 68.7374L59.7595 69.6065ZM60.0442 70.1965L61.8455 69.3275L60.0442 70.1965ZM60.3288 70.7866L58.5275 71.6557L60.3288 70.7866ZM60.1573 72.9012L58.2412 72.3278L60.1573 72.9012ZM59.9883 74.8348L58.3517 75.9844L59.9883 74.8348ZM60.2756 75.2439L61.9123 74.0944L60.2756 75.2439ZM60.3006 76.4232L59.2021 74.7519V74.7519L60.3006 76.4232ZM59.2015 77.1456L60.3 78.8169V78.8169L59.2015 77.1456ZM57.9908 77.624L57.6419 75.6546L57.9908 77.624ZM57.3296 77.7411L56.9808 75.7718L57.3296 77.7411ZM56.6685 77.8582L57.0173 79.8276L56.6685 77.8582ZM55.9622 78.1065L57.8536 78.7566L55.9622 78.1065ZM55.9171 78.2377L57.7599 79.0149L57.7864 78.9521L57.8085 78.8878L55.9171 78.2377ZM55.8477 78.4022L54.0049 77.625L53.931 77.8004L53.8914 77.9865L55.8477 78.4022ZM53.8706 78.0843C53.6411 79.1648 54.3309 80.2268 55.4113 80.4563C56.4918 80.6859 57.5537 79.9961 57.7833 78.9157L55.827 78.5L53.8706 78.0843ZM54.2154 54.3264L52.3194 54.9631L52.3513 55.0579L54.2472 54.4212L56.1432 53.7845L56.1113 53.6897L54.2154 54.3264ZM54.2472 54.4212L52.2475 54.4526L52.2681 55.7643L54.2678 55.7329L56.2676 55.7016L56.247 54.3899L54.2472 54.4212ZM54.2678 55.7329L52.2681 55.7643C52.2839 56.7743 52.4728 58.0507 53.369 58.9623L54.7952 57.5601L56.2214 56.1579C56.3473 56.2861 56.3553 56.3735 56.3315 56.2909C56.3073 56.2072 56.2726 56.0235 56.2676 55.7016L54.2678 55.7329ZM54.7952 57.5601L53.369 58.9623L53.8758 59.4777L55.302 58.0756L56.7282 56.6734L56.2214 56.1579L54.7952 57.5601ZM55.302 58.0756L53.8758 59.4777L54.3826 59.9932L55.8088 58.5911L57.235 57.1889L56.7282 56.6734L55.302 58.0756ZM55.8088 58.5911L54.3826 59.9932C54.5606 60.1743 54.6607 60.3359 54.719 60.476L56.5657 59.7082L58.4125 58.9404C58.1372 58.2783 57.7327 57.6952 57.235 57.1889L55.8088 58.5911ZM56.5657 59.7082L54.719 60.476L54.9691 61.0777L56.8159 60.3099L58.6626 59.5421L58.4125 58.9404L56.5657 59.7082ZM56.8159 60.3099L54.9691 61.0777L55.2193 61.6793L57.066 60.9115L58.9128 60.1437L58.6626 59.5421L56.8159 60.3099ZM57.066 60.9115L55.2193 61.6793C55.2256 61.6945 55.251 61.7544 55.2245 61.9185L57.1987 62.2383L59.173 62.5581C59.303 61.7554 59.24 60.9308 58.9128 60.1437L57.066 60.9115ZM57.1987 62.2383L55.2245 61.9185L55.107 62.6437L57.0813 62.9634L59.0555 63.2832L59.173 62.5581L57.1987 62.2383ZM57.0813 62.9634L55.107 62.6437L54.9896 63.3688L56.9638 63.6886L58.9381 64.0084L59.0555 63.2832L57.0813 62.9634ZM56.9638 63.6886L54.9896 63.3688C54.8428 64.2745 54.9821 65.2003 55.4927 66.0301L57.196 64.9819L58.8994 63.9338C58.9043 63.9418 58.9112 63.9548 58.9179 63.972C58.9245 63.9893 58.929 64.0063 58.9317 64.021C58.9373 64.0526 58.9309 64.0531 58.9381 64.0084L56.9638 63.6886ZM57.196 64.9819L55.4927 66.0301L55.8424 66.5983L57.5457 65.5502L59.2491 64.502L58.8994 63.9338L57.196 64.9819ZM57.5457 65.5502L55.8424 66.5983L56.1921 67.1666L57.8954 66.1184L59.5987 65.0702L59.2491 64.502L57.5457 65.5502ZM57.8954 66.1184L56.1921 67.1666C56.4024 67.5084 56.5996 67.8538 56.7838 68.2027L58.5525 67.2691L60.3212 66.3355C60.0955 65.9078 59.8546 65.486 59.5987 65.0702L57.8954 66.1184ZM58.5525 67.2691L56.7838 68.2027L57.0912 68.7851L58.8599 67.8515L60.6287 66.9179L60.3212 66.3355L58.5525 67.2691ZM58.8599 67.8515L57.0912 68.7851L57.3986 69.3675L59.1674 68.434L60.9361 67.5004L60.6287 66.9179L58.8599 67.8515ZM59.1674 68.434L57.3986 69.3675C57.5924 69.7346 57.7789 70.104 57.9582 70.4755L59.7595 69.6065L61.5608 68.7374C61.3605 68.3222 61.1522 67.9099 60.9361 67.5004L59.1674 68.434ZM59.7595 69.6065L57.9582 70.4755L58.2428 71.0656L60.0442 70.1965L61.8455 69.3275L61.5608 68.7374L59.7595 69.6065ZM60.0442 70.1965L58.2428 71.0656L58.5275 71.6557L60.3288 70.7866L62.1301 69.9175L61.8455 69.3275L60.0442 70.1965ZM60.3288 70.7866L58.5275 71.6557C58.5152 71.6301 58.5048 71.6016 58.4976 71.5723C58.4904 71.5431 58.4877 71.5192 58.4871 71.5033C58.4857 71.4715 58.4926 71.4878 58.4694 71.5655L60.3854 72.139L62.3014 72.7124C62.5644 71.8338 62.5813 70.8526 62.1301 69.9175L60.3288 70.7866ZM60.3854 72.139L58.4694 71.5655L58.2412 72.3278L60.1573 72.9012L62.0733 73.4746L62.3014 72.7124L60.3854 72.139ZM60.1573 72.9012L58.2412 72.3278L58.0131 73.0901L59.9291 73.6635L61.8452 74.2369L62.0733 73.4746L60.1573 72.9012ZM59.9291 73.6635L58.0131 73.0901C57.7896 73.837 57.6419 74.9739 58.3517 75.9844L59.9883 74.8348L61.625 73.6853C61.7811 73.9076 61.8215 74.1215 61.8273 74.2366C61.8323 74.3343 61.8128 74.3453 61.8452 74.2369L59.9291 73.6635ZM59.9883 74.8348L58.3517 75.9844L58.639 76.3934L60.2756 75.2439L61.9123 74.0944L61.625 73.6853L59.9883 74.8348ZM60.2756 75.2439L58.639 76.3934L58.9263 76.8024L60.5629 75.6529L62.1995 74.5034L61.9123 74.0944L60.2756 75.2439ZM60.5629 75.6529L58.9263 76.8024C58.8501 76.694 58.7439 76.5052 58.6918 76.2403C58.6369 75.9609 58.6573 75.6708 58.7477 75.4054C58.8332 75.1543 58.9602 74.9853 59.0454 74.8919C59.129 74.8002 59.1937 74.7574 59.2021 74.7519L60.3006 76.4232L61.3992 78.0945C61.7419 77.8692 62.2825 77.4339 62.5342 76.6946C62.8315 75.8217 62.5684 75.0285 62.1995 74.5034L60.5629 75.6529ZM60.3006 76.4232L59.2021 74.7519L58.6525 75.1131L59.7511 76.7844L60.8496 78.4557L61.3992 78.0945L60.3006 76.4232ZM59.7511 76.7844L58.6525 75.1131L58.103 75.4744L59.2015 77.1456L60.3 78.8169L60.8496 78.4557L59.7511 76.7844ZM59.2015 77.1456L58.103 75.4744C57.9685 75.5628 57.8209 75.6229 57.6419 75.6546L57.9908 77.624L58.3396 79.5933C59.0422 79.4689 59.7018 79.2102 60.3 78.8169L59.2015 77.1456ZM57.9908 77.624L57.6419 75.6546L56.9808 75.7718L57.3296 77.7411L57.6785 79.7104L58.3396 79.5933L57.9908 77.624ZM57.3296 77.7411L56.9808 75.7718L56.3196 75.8889L56.6685 77.8582L57.0173 79.8276L57.6785 79.7104L57.3296 77.7411ZM56.6685 77.8582L56.3196 75.8889C56.062 75.9345 55.7683 75.997 55.498 76.092C55.3671 76.1381 55.1601 76.2195 54.9438 76.3581C54.7739 76.4671 54.2969 76.7986 54.0708 77.4564L55.9622 78.1065L57.8536 78.7566C57.7426 79.0795 57.5698 79.3065 57.4379 79.4464C57.3064 79.5858 57.1814 79.675 57.1027 79.7255C56.9528 79.8216 56.8378 79.861 56.8246 79.8657C56.7898 79.8779 56.8341 79.86 57.0173 79.8276L56.6685 77.8582ZM55.9622 78.1065L54.0708 77.4564L54.0257 77.5876L55.9171 78.2377L57.8085 78.8878L57.8536 78.7566L55.9622 78.1065ZM55.9171 78.2377L54.0743 77.4605L54.0049 77.625L55.8477 78.4022L57.6906 79.1794L57.7599 79.0149L55.9171 78.2377ZM55.8477 78.4022L53.8914 77.9865L53.8706 78.0843L55.827 78.5L57.7833 78.9157L57.8041 78.8178L55.8477 78.4022Z" fill="#3F2621"/>
<path d="M40.1521 55.1044C40.5818 54.0868 40.1052 52.9136 39.0876 52.484C38.07 52.0543 36.8968 52.5309 36.4671 53.5485L38.3096 54.3264L40.1521 55.1044ZM38.2707 54.4186L36.4282 53.6406L36.36 53.8023L36.3209 53.9733L38.2707 54.4186ZM37.9881 55.6561L39.9379 56.1014L37.9881 55.6561ZM35.8636 61.0549L33.9288 61.5614L35.8636 61.0549ZM34.9967 64.9222L33.1746 64.0975L34.9967 64.9222ZM34.7286 65.5146L36.5506 66.3393L34.7286 65.5146ZM34.4604 66.1069L32.6384 65.2822L34.4604 66.1069ZM33.586 67.1489L32.3948 65.5424L33.586 67.1489ZM31.4672 69.0765L29.6915 68.1563L31.4672 69.0765ZM30.0682 72.0136L31.915 72.7814L30.0682 72.0136ZM29.8187 72.6138L27.9719 71.8461L29.8187 72.6138ZM29.3565 73.8064L31.239 74.482L29.3565 73.8064ZM28.9313 74.9912L27.0489 74.3156L28.9313 74.9912ZM28.0765 75.4614L28.4502 73.4966L28.0765 75.4614ZM26.7921 75.2171L27.1658 73.2523L26.7921 75.2171ZM25.6449 74.5207L27.1468 73.2L25.6449 74.5207ZM24.635 73.3723L23.1331 74.693L24.635 73.3723ZM23.976 72.9763L22.4624 71.6691L23.976 72.9763ZM23.8221 73.1546L22.3084 71.8473L22.2702 71.8916L22.2346 71.9381L23.8221 73.1546ZM23.5945 73.4516L24.7856 75.0582L25.0112 74.891L25.182 74.6681L23.5945 73.4516ZM22.3231 71.9045C21.4357 72.5623 21.2497 73.8149 21.9075 74.7022C22.5653 75.5895 23.8179 75.7756 24.7052 75.1178L23.5142 73.5111L22.3231 71.9045ZM38.3096 54.3264L36.4671 53.5485L36.4282 53.6406L38.2707 54.4186L40.1132 55.1965L40.1521 55.1044L38.3096 54.3264ZM38.2707 54.4186L36.3209 53.9733L36.0383 55.2109L37.9881 55.6561L39.9379 56.1014L40.2205 54.8638L38.2707 54.4186ZM37.9881 55.6561L36.0383 55.2109C35.9715 55.5035 35.9018 55.6714 35.858 55.7534C35.816 55.832 35.822 55.7873 35.9178 55.718L37.0893 57.339L38.2608 58.96C39.2552 58.2413 39.7086 57.1058 39.9379 56.1014L37.9881 55.6561ZM37.0893 57.339L35.9178 55.718L35.3015 56.1634L36.473 57.7844L37.6445 59.4054L38.2608 58.96L37.0893 57.339ZM36.473 57.7844L35.3015 56.1634L34.6853 56.6087L35.8568 58.2297L37.0283 59.8507L37.6445 59.4054L36.473 57.7844ZM35.8568 58.2297L34.6853 56.6087C34.1971 56.9615 33.7681 57.4658 33.5472 58.1355C33.3306 58.7922 33.3715 59.433 33.5134 59.9749L35.4482 59.4684L37.383 58.9618C37.3864 58.9749 37.4263 59.1448 37.3458 59.3886C37.2611 59.6455 37.1056 59.7949 37.0283 59.8507L35.8568 58.2297ZM35.4482 59.4684L33.5134 59.9749L33.7211 60.7681L35.6559 60.2616L37.5907 59.7551L37.383 58.9618L35.4482 59.4684ZM35.6559 60.2616L33.7211 60.7681L33.9288 61.5614L35.8636 61.0549L37.7983 60.5483L37.5907 59.7551L35.6559 60.2616ZM35.8636 61.0549L33.9288 61.5614C33.9951 61.8147 33.9566 61.884 33.9675 61.8505L35.8696 62.4686L37.7717 63.0866C38.0514 62.2259 38.0089 61.3527 37.7983 60.5483L35.8636 61.0549ZM35.8696 62.4686L33.9675 61.8505L33.7659 62.4709L35.668 63.089L37.5701 63.7071L37.7717 63.0866L35.8696 62.4686ZM35.668 63.089L33.7659 62.4709L33.5643 63.0914L35.4664 63.7094L37.3685 64.3275L37.5701 63.7071L35.668 63.089ZM35.4664 63.7094L33.5643 63.0914C33.4527 63.4349 33.3228 63.7702 33.1746 64.0975L34.9967 64.9222L36.8187 65.7469C37.0281 65.2845 37.2113 64.8112 37.3685 64.3275L35.4664 63.7094ZM34.9967 64.9222L33.1746 64.0975L32.9065 64.6899L34.7286 65.5146L36.5506 66.3393L36.8187 65.7469L34.9967 64.9222ZM34.7286 65.5146L32.9065 64.6899L32.6384 65.2822L34.4604 66.1069L36.2825 66.9317L36.5506 66.3393L34.7286 65.5146ZM34.4604 66.1069L32.6384 65.2822C32.6211 65.3205 32.5699 65.4125 32.3948 65.5424L33.586 67.1489L34.7773 68.7554C35.4105 68.2858 35.9423 67.6832 36.2825 66.9317L34.4604 66.1069ZM33.586 67.1489L32.3948 65.5424L31.7885 65.9919L32.9798 67.5985L34.171 69.205L34.7773 68.7554L33.586 67.1489ZM32.9798 67.5985L31.7885 65.9919L31.1822 66.4415L32.3735 68.048L33.5647 69.6545L34.171 69.205L32.9798 67.5985ZM32.3735 68.048L31.1822 66.4415C30.572 66.894 30.052 67.4605 29.6915 68.1563L31.4672 69.0765L33.2429 69.9967C33.2824 69.9206 33.3666 69.8015 33.5647 69.6545L32.3735 68.048ZM31.4672 69.0765L29.6915 68.1563L29.3915 68.7352L31.1672 69.6554L32.9429 70.5756L33.2429 69.9967L31.4672 69.0765ZM31.1672 69.6554L29.3915 68.7352L29.0915 69.3141L30.8672 70.2343L32.6429 71.1545L32.9429 70.5756L31.1672 69.6554ZM30.8672 70.2343L29.0915 69.3141C28.8658 69.7497 28.6589 70.1936 28.4709 70.6457L30.3177 71.4134L32.1645 72.1811C32.3092 71.833 32.4687 71.4908 32.6429 71.1545L30.8672 70.2343ZM30.3177 71.4134L28.4709 70.6457L28.2214 71.2459L30.0682 72.0136L31.915 72.7814L32.1645 72.1811L30.3177 71.4134ZM30.0682 72.0136L28.2214 71.2459L27.9719 71.8461L29.8187 72.6138L31.6654 73.3816L31.915 72.7814L30.0682 72.0136ZM29.8187 72.6138L27.9719 71.8461C27.7933 72.2757 27.6273 72.7039 27.4741 73.1308L29.3565 73.8064L31.239 74.482C31.3692 74.1191 31.5113 73.7523 31.6654 73.3816L29.8187 72.6138ZM29.3565 73.8064L27.4741 73.1308L27.2615 73.7232L29.1439 74.3988L31.0264 75.0744L31.239 74.482L29.3565 73.8064ZM29.1439 74.3988L27.2615 73.7232L27.0489 74.3156L28.9313 74.9912L30.8138 75.6668L31.0264 75.0744L29.1439 74.3988ZM28.9313 74.9912L27.0489 74.3156C27.0937 74.1908 27.2506 73.8708 27.6474 73.6525C28.0328 73.4405 28.3632 73.4801 28.4502 73.4966L28.0765 75.4614L27.7028 77.4262C28.2179 77.5241 28.9049 77.526 29.5753 77.1573C30.2569 76.7823 30.6272 76.1865 30.8138 75.6668L28.9313 74.9912ZM28.0765 75.4614L28.4502 73.4966L27.808 73.3745L27.4343 75.3392L27.0606 77.304L27.7028 77.4262L28.0765 75.4614ZM27.4343 75.3392L27.808 73.3745L27.1658 73.2523L26.7921 75.2171L26.4184 77.1819L27.0606 77.304L27.4343 75.3392ZM26.7921 75.2171L27.1658 73.2523C27.1771 73.2545 27.1894 73.2579 27.2012 73.2625C27.2128 73.267 27.2199 73.271 27.222 73.2723C27.2266 73.2751 27.1994 73.2599 27.1468 73.2L25.6449 74.5207L24.143 75.8415C24.7217 76.4994 25.4815 77.0037 26.4184 77.1819L26.7921 75.2171ZM25.6449 74.5207L27.1468 73.2L26.6418 72.6258L25.1399 73.9465L23.6381 75.2672L24.143 75.8415L25.6449 74.5207ZM25.1399 73.9465L26.6418 72.6258L26.1368 72.0515L24.635 73.3723L23.1331 74.693L23.6381 75.2672L25.1399 73.9465ZM24.635 73.3723L26.1368 72.0515C25.9392 71.8268 25.6335 71.5036 25.2479 71.2719C25.058 71.1578 24.6732 70.9569 24.1564 70.9359C23.526 70.9102 22.899 71.1636 22.4624 71.6691L23.976 72.9763L25.4897 74.2836C25.3223 74.4774 25.0938 74.6601 24.8033 74.7838C24.5144 74.9067 24.2324 74.9423 23.9935 74.9326C23.5573 74.9148 23.2677 74.7486 23.1876 74.7005C23.0217 74.6008 22.9941 74.535 23.1331 74.693L24.635 73.3723ZM23.976 72.9763L22.4624 71.6691L22.3084 71.8473L23.8221 73.1546L25.3357 74.4618L25.4897 74.2836L23.976 72.9763ZM23.8221 73.1546L22.2346 71.9381L22.007 72.2351L23.5945 73.4516L25.182 74.6681L25.4096 74.3711L23.8221 73.1546ZM23.5945 73.4516L22.4034 71.8449L22.3231 71.9045L23.5142 73.5111L24.7052 75.1178L24.7856 75.0582L23.5945 73.4516Z" fill="#3F2621"/>
<path d="M14.898 9.60598C13.936 12.9903 16.0024 55.1576 42.6593 56.4375C45.7148 56.5842 48.4844 56.3186 50.9922 55.7105C52.0597 55.4516 53.0798 55.1307 54.0542 54.7531C58.251 53.1267 61.6023 50.4488 64.2563 47.1485C65.3893 45.7396 67.1472 43.608 68.0376 42.0057C70.9235 36.8123 71.7606 33.1194 72.612 27.3818C72.857 25.7304 73.1171 22.3718 73.2355 20.7967C73.4651 17.7412 74.0495 14.8945 73.3307 12.4114C72.612 9.9283 64.2071 1.43232 46.4798 0.581191C28.1079 -0.300886 15.86 6.22168 14.898 9.60598Z" fill="#B5D240"/>
<path d="M72.612 27.3818C78.8523 27.3457 83.7267 27.7541 83.3558 35.4807C82.9848 43.2073 75.7643 42.3767 68.0376 42.0057C67.1472 43.608 65.3893 45.7396 64.2563 47.1485C75.412 47.6841 88.6428 46.3383 89.1507 35.7589C89.6608 25.1348 81.284 21.2906 73.2355 20.7967C73.1171 22.3718 72.857 25.7304 72.612 27.3818Z" fill="#B5D240"/>
<path d="M72.612 27.3818C78.8523 27.3457 83.7267 27.7541 83.3558 35.4807C82.9848 43.2073 75.7643 42.3767 68.0376 42.0057M72.612 27.3818C71.7606 33.1194 70.9236 36.8123 68.0376 42.0057M72.612 27.3818C72.857 25.7304 73.1171 22.3718 73.2355 20.7967M68.0376 42.0057C67.1472 43.608 65.3893 45.7396 64.2563 47.1485M73.2355 20.7967C73.4651 17.7412 74.0495 14.8945 73.3307 12.4114C72.612 9.9283 64.2071 1.43232 46.4798 0.581191C28.1079 -0.300886 15.86 6.22168 14.898 9.60598C13.936 12.9903 16.0024 55.1576 42.6593 56.4375C45.7148 56.5842 48.4844 56.3186 50.9922 55.7105C52.0597 55.4516 53.0798 55.1307 54.0542 54.7531C58.251 53.1267 61.6023 50.4488 64.2563 47.1485M73.2355 20.7967C81.284 21.2906 89.6608 25.1348 89.1507 35.7589C88.6428 46.3383 75.412 47.6841 64.2563 47.1485" stroke="#B5D240"/>
<path d="M41.1617 3.64318C31.4976 3.98832 20.2113 7.34979 17.4716 10.4118C17.7939 11.5399 32.3625 13.6027 42.9344 14.1184C53.5063 14.6341 69.8477 12.5068 70.0088 11.8622C67.7526 8.96135 56.1493 3.10792 41.1617 3.64318Z" fill="#DC6382"/>
<path d="M24.2458 23.95C23.9762 22.8789 22.8892 22.2291 21.8181 22.4988C20.7469 22.7684 20.0972 23.8554 20.3668 24.9265L22.3063 24.4383L24.2458 23.95ZM22.3307 24.5352L24.3297 24.4697L24.3226 24.2552L24.2702 24.047L22.3307 24.5352ZM23.2722 28.8637L21.4611 29.7121L23.2722 28.8637ZM23.1703 30.2165L24.9417 31.1451L23.1703 30.2165ZM22.7304 32.9067L23.8132 31.2252L22.7304 32.9067ZM24.1812 33.8409L25.264 32.1594L24.1812 33.8409ZM24.6598 35.0999L22.7504 34.5049L24.6598 35.0999ZM24.1664 36.6836L22.2569 36.0886L24.1664 36.6836ZM24.4279 38.7363L22.573 39.4841L24.4279 38.7363ZM25.4825 40.4413L24.2206 41.993L25.4825 40.4413ZM26.5751 41.3299L27.837 39.7782L26.5751 41.3299ZM27.762 42.074L28.6099 40.2626L27.762 42.074ZM29.0435 42.6738L28.1957 44.4852L29.0435 42.6738ZM29.8986 43.6924L31.8151 43.1207L29.8986 43.6924ZM30.3273 45.1299L28.4108 45.7015L30.3273 45.1299ZM31.0164 46.3534L32.4734 44.9832L31.0164 46.3534ZM31.9657 47.3629L30.5088 48.733L31.9657 47.3629ZM33.2434 47.7582L32.9735 45.7765L33.2434 47.7582ZM34.8493 47.5395L34.5794 45.5578L34.8493 47.5395ZM36.2177 47.7238L35.2961 49.4988L36.2177 47.7238ZM37.3487 48.311L38.2703 46.536L37.3487 48.311ZM38.5524 48.6699L38.3488 50.6595L38.5524 48.6699ZM39.829 48.8006L40.0326 46.8109L39.829 48.8006ZM41.0851 49.0207L41.5713 47.0807L41.0851 49.0207ZM41.703 49.1755L42.1892 47.2355L41.703 49.1755ZM42.3208 49.3304L41.8347 51.2704L42.3208 49.3304ZM43.5848 49.8694L42.5625 51.5884L43.5848 49.8694ZM44.2309 50.2537L43.2086 51.9727L44.2309 50.2537ZM48.577 48.9639L49.0075 47.0108L48.577 48.9639ZM49.2786 49.1185L49.709 47.1654L49.2786 49.1185ZM49.9801 49.2731L49.5497 51.2262L49.9801 49.2731ZM51.2491 49.09L52.2719 50.8087L51.2491 49.09ZM51.8166 48.7522L50.7938 47.0336L51.8166 48.7522ZM53.3238 47.4978L51.6414 46.4163L53.3238 47.4978ZM54.0682 46.3397L55.7506 47.4212L54.0682 46.3397ZM55.1013 45.5512L55.7056 47.4578L55.1013 45.5512ZM55.7623 45.3417L56.3666 47.2483L55.7623 45.3417ZM56.4232 45.1323L55.8189 43.2257L56.4232 45.1323ZM57.6507 44.5379L58.7745 46.1923L57.6507 44.5379ZM58.7837 43.7682L57.6598 42.1139L58.7837 43.7682ZM59.4769 42.6748L57.5082 42.3227L59.4769 42.6748ZM59.6037 41.9662L61.5724 42.3183L59.6037 41.9662ZM59.7304 41.2576L57.7616 40.9055L59.7304 41.2576ZM60.0069 39.9073L58.0593 39.4525L60.0069 39.9073ZM60.3066 38.6241L62.2542 39.0789L60.3066 38.6241ZM61.2253 37.6211L60.3746 35.8111L61.2253 37.6211ZM62.763 36.8985L63.6137 38.7085L62.763 36.8985ZM63.7342 35.9005L65.6402 36.5064L63.7342 35.9005ZM64.139 34.6272L62.233 34.0213L64.139 34.6272ZM64.1119 33.2435L66.0238 32.6564L64.1119 33.2435ZM63.653 31.7492L61.7412 32.3363L63.653 31.7492ZM63.5328 30.3761L61.5626 30.0323L63.5328 30.3761ZM63.7513 29.1242L65.7215 29.4679L63.7513 29.1242ZM64.4555 27.9288L63.0727 26.4838L64.4555 27.9288ZM65.0505 27.3593L66.4333 28.8042L65.0505 27.3593ZM65.6455 26.7898L64.2627 25.3449L65.6455 26.7898ZM65.9739 26.1778L65.6581 28.1527L65.9739 26.1778ZM65.7073 26.1351L66.0232 24.1602L65.8498 24.1325L65.6744 24.1354L65.7073 26.1351ZM65.1417 26.1444L63.2497 25.4961L62.3261 28.1911L65.1746 28.1442L65.1417 26.1444ZM67.0661 26.6982C67.4241 25.6533 66.8674 24.5159 65.8224 24.1578C64.7775 23.7998 63.6402 24.3566 63.2821 25.4015L65.1741 26.0498L67.0661 26.6982ZM22.3063 24.4383L20.3668 24.9265L20.3912 25.0235L22.3307 24.5352L24.2702 24.047L24.2458 23.95L22.3063 24.4383ZM22.3307 24.5352L20.3318 24.6007L20.3726 25.8473L22.3716 25.7818L24.3705 25.7163L24.3297 24.4697L22.3307 24.5352ZM22.3716 25.7818L20.3726 25.8473C20.4025 26.7588 20.5218 27.7072 20.8879 28.4886L22.699 27.6401L24.5101 26.7917C24.5122 26.7962 24.4786 26.7219 24.4435 26.5226C24.4096 26.33 24.3819 26.0655 24.3705 25.7163L22.3716 25.7818ZM22.699 27.6401L20.8879 28.4886L21.1745 29.1004L22.9856 28.2519L24.7967 27.4035L24.5101 26.7917L22.699 27.6401ZM22.9856 28.2519L21.1745 29.1004L21.4611 29.7121L23.2722 28.8637L25.0833 28.0152L24.7967 27.4035L22.9856 28.2519ZM23.2722 28.8637L21.4611 29.7121C21.4383 29.6636 21.4182 29.6044 21.406 29.5376C21.3937 29.4708 21.3918 29.4092 21.3957 29.3576C21.4034 29.2555 21.4306 29.2276 21.399 29.2879L23.1703 30.2165L24.9417 31.1451C25.4141 30.244 25.6026 29.1238 25.0833 28.0152L23.2722 28.8637ZM23.1703 30.2165L21.399 29.2879L21.0105 30.0289L22.7819 30.9575L24.5533 31.8861L24.9417 31.1451L23.1703 30.2165ZM22.7819 30.9575L21.0105 30.0289L20.6221 30.7699L22.3934 31.6985L24.1648 32.6271L24.5533 31.8861L22.7819 30.9575ZM22.3934 31.6985L20.6221 30.7699C20.337 31.3138 20.1235 32.0711 20.357 32.9084C20.5871 33.7335 21.1493 34.2673 21.6476 34.5882L22.7304 32.9067L23.8132 31.2252C23.8279 31.2346 24.0921 31.4113 24.2099 31.8338C24.3311 32.2683 24.1909 32.5773 24.1648 32.6271L22.3934 31.6985ZM22.7304 32.9067L21.6476 34.5882L22.373 35.0553L23.4558 33.3738L24.5386 31.6923L23.8132 31.2252L22.7304 32.9067ZM23.4558 33.3738L22.373 35.0553L23.0984 35.5224L24.1812 33.8409L25.264 32.1594L24.5386 31.6923L23.4558 33.3738ZM24.1812 33.8409L23.0984 35.5224C23.0825 35.5122 22.904 35.3892 22.7941 35.1C22.6807 34.8017 22.7311 34.5669 22.7504 34.5049L24.6598 35.0999L26.5693 35.6949C26.7531 35.105 26.8059 34.3964 26.533 33.6785C26.2635 32.9697 25.7635 32.4811 25.264 32.1594L24.1812 33.8409ZM24.6598 35.0999L22.7504 34.5049L22.5037 35.2968L24.4131 35.8918L26.3225 36.4867L26.5693 35.6949L24.6598 35.0999ZM24.4131 35.8918L22.5037 35.2968L22.2569 36.0886L24.1664 36.6836L26.0758 37.2786L26.3225 36.4867L24.4131 35.8918ZM24.1664 36.6836L22.2569 36.0886C21.9864 36.9567 21.9413 37.9173 22.3189 38.8537L24.1738 38.1059L26.0287 37.358C26.0348 37.3731 26.0393 37.3888 26.042 37.403C26.0447 37.4171 26.0448 37.425 26.0448 37.4247C26.0448 37.4237 26.0447 37.3784 26.0758 37.2786L24.1664 36.6836ZM24.1738 38.1059L22.3189 38.8537L22.573 39.4841L24.4279 38.7363L26.2829 37.9884L26.0287 37.358L24.1738 38.1059ZM24.4279 38.7363L22.573 39.4841L22.8272 40.1145L24.6821 39.3667L26.537 38.6188L26.2829 37.9884L24.4279 38.7363ZM24.6821 39.3667L22.8272 40.1145C23.1278 40.8601 23.6038 41.4913 24.2206 41.993L25.4825 40.4413L26.7444 38.8897C26.6329 38.799 26.5753 38.7138 26.537 38.6188L24.6821 39.3667ZM25.4825 40.4413L24.2206 41.993L24.7669 42.4372L26.0288 40.8856L27.2907 39.334L26.7444 38.8897L25.4825 40.4413ZM26.0288 40.8856L24.7669 42.4372L25.3131 42.8815L26.5751 41.3299L27.837 39.7782L27.2907 39.334L26.0288 40.8856ZM26.5751 41.3299L25.3131 42.8815C25.8048 43.2814 26.3397 43.6165 26.9142 43.8854L27.762 42.074L28.6099 40.2626C28.3302 40.1317 28.0737 39.9707 27.837 39.7782L26.5751 41.3299ZM27.762 42.074L26.9142 43.8854L27.555 44.1853L28.4028 42.3739L29.2506 40.5625L28.6099 40.2626L27.762 42.074ZM28.4028 42.3739L27.555 44.1853L28.1957 44.4852L29.0435 42.6738L29.8913 40.8624L29.2506 40.5625L28.4028 42.3739ZM29.0435 42.6738L28.1957 44.4852C28.1629 44.4698 28.1022 44.4314 28.0458 44.3643C27.9915 44.2996 27.9787 44.2529 27.982 44.2641L29.8986 43.6924L31.8151 43.1207C31.5202 42.132 30.8694 41.3202 29.8913 40.8624L29.0435 42.6738ZM29.8986 43.6924L27.982 44.2641L28.1964 44.9828L30.113 44.4111L32.0295 43.8395L31.8151 43.1207L29.8986 43.6924ZM30.113 44.4111L28.1964 44.9828L28.4108 45.7015L30.3273 45.1299L32.2439 44.5582L32.0295 43.8395L30.113 44.4111ZM30.3273 45.1299L28.4108 45.7015C28.6352 46.4539 29.0125 47.1419 29.5595 47.7235L31.0164 46.3534L32.4734 44.9832C32.3874 44.8918 32.3053 44.7642 32.2439 44.5582L30.3273 45.1299ZM31.0164 46.3534L29.5595 47.7235L30.0341 48.2283L31.4911 46.8581L32.948 45.488L32.4734 44.9832L31.0164 46.3534ZM31.4911 46.8581L30.0341 48.2283L30.5088 48.733L31.9657 47.3629L33.4227 45.9927L32.948 45.488L31.4911 46.8581ZM31.9657 47.3629L30.5088 48.733C31.3476 49.625 32.4616 49.8832 33.5133 49.7399L33.2434 47.7582L32.9735 45.7765C32.9346 45.7818 32.9956 45.7669 33.1138 45.8035C33.2435 45.8436 33.3529 45.9185 33.4227 45.9927L31.9657 47.3629ZM33.2434 47.7582L33.5133 49.7399L34.3162 49.6306L34.0463 47.6489L33.7764 45.6672L32.9735 45.7765L33.2434 47.7582ZM34.0463 47.6489L34.3162 49.6306L35.1192 49.5212L34.8493 47.5395L34.5794 45.5578L33.7764 45.6672L34.0463 47.6489ZM34.8493 47.5395L35.1192 49.5212C35.2388 49.5049 35.3038 49.51 35.326 49.513C35.3447 49.5155 35.3288 49.5157 35.2961 49.4988L36.2177 47.7238L37.1394 45.9488C36.3075 45.5169 35.4123 45.4444 34.5794 45.5578L34.8493 47.5395ZM36.2177 47.7238L35.2961 49.4988L35.8616 49.7924L36.7832 48.0174L37.7048 46.2424L37.1394 45.9488L36.2177 47.7238ZM36.7832 48.0174L35.8616 49.7924L36.4271 50.086L37.3487 48.311L38.2703 46.536L37.7048 46.2424L36.7832 48.0174ZM37.3487 48.311L36.4271 50.086C37.0293 50.3987 37.6744 50.5905 38.3488 50.6595L38.5524 48.6699L38.7561 46.6803C38.5795 46.6622 38.422 46.6147 38.2703 46.536L37.3487 48.311ZM38.5524 48.6699L38.3488 50.6595L38.9871 50.7248L39.1907 48.7352L39.3944 46.7456L38.7561 46.6803L38.5524 48.6699ZM39.1907 48.7352L38.9871 50.7248L39.6254 50.7902L39.829 48.8006L40.0326 46.8109L39.3944 46.7456L39.1907 48.7352ZM39.829 48.8006L39.6254 50.7902C39.9564 50.824 40.2806 50.8809 40.599 50.9607L41.0851 49.0207L41.5713 47.0807C41.0659 46.954 40.5527 46.8642 40.0326 46.8109L39.829 48.8006ZM41.0851 49.0207L40.599 50.9607L41.2168 51.1156L41.703 49.1755L42.1892 47.2355L41.5713 47.0807L41.0851 49.0207ZM41.703 49.1755L41.2168 51.1156L41.8347 51.2704L42.3208 49.3304L42.807 47.3904L42.1892 47.2355L41.703 49.1755ZM42.3208 49.3304L41.8347 51.2704C42.0277 51.3188 42.2696 51.4142 42.5625 51.5884L43.5848 49.8694L44.6071 48.1504C44.0385 47.8123 43.4377 47.5484 42.807 47.3904L42.3208 49.3304ZM43.5848 49.8694L42.5625 51.5884L43.2086 51.9727L44.2309 50.2537L45.2532 48.5347L44.6071 48.1504L43.5848 49.8694ZM44.2309 50.2537L43.2086 51.9727L43.8547 52.3569L44.877 50.6379L45.8993 48.9189L45.2532 48.5347L44.2309 50.2537ZM44.877 50.6379L43.8547 52.3569C44.3759 52.6668 45.0384 52.8708 45.7799 52.7693C46.5045 52.6701 47.0721 52.3109 47.4815 51.9257L46.1112 50.4689L44.7409 49.0121C44.7583 48.9958 44.9241 48.8491 45.2373 48.8062C45.5674 48.761 45.8088 48.8651 45.8993 48.9189L44.877 50.6379ZM46.1112 50.4689L47.4815 51.9257L48.0696 51.3725L46.6993 49.9157L45.329 48.4589L44.7409 49.0121L46.1112 50.4689ZM46.6993 49.9157L48.0696 51.3725L48.6577 50.8193L47.2874 49.3625L45.9171 47.9057L45.329 48.4589L46.6993 49.9157ZM47.2874 49.3625L48.6577 50.8193C48.6749 50.8031 48.6223 50.8576 48.4945 50.8971C48.3571 50.9395 48.2285 50.9351 48.1466 50.917L48.577 48.9639L49.0075 47.0108C47.8063 46.7461 46.7209 47.1496 45.9171 47.9057L47.2874 49.3625ZM48.577 48.9639L48.1466 50.917L48.8481 51.0716L49.2786 49.1185L49.709 47.1654L49.0075 47.0108L48.577 48.9639ZM49.2786 49.1185L48.8481 51.0716L49.5497 51.2262L49.9801 49.2731L50.4105 47.32L49.709 47.1654L49.2786 49.1185ZM49.9801 49.2731L49.5497 51.2262C50.4664 51.4283 51.4165 51.3177 52.2719 50.8087L51.2491 49.09L50.2263 47.3713C50.2563 47.3534 50.3055 47.3333 50.3624 47.3251C50.4162 47.3174 50.4373 47.3259 50.4105 47.32L49.9801 49.2731ZM51.2491 49.09L52.2719 50.8087L52.8394 50.4709L51.8166 48.7522L50.7938 47.0336L50.2263 47.3713L51.2491 49.09ZM51.8166 48.7522L52.8394 50.4709L53.4069 50.1332L52.3841 48.4145L51.3613 46.6958L50.7938 47.0336L51.8166 48.7522ZM52.3841 48.4145L53.4069 50.1332C54.0629 49.7428 54.5978 49.2145 55.0062 48.5792L53.3238 47.4978L51.6414 46.4163C51.5535 46.553 51.462 46.6359 51.3613 46.6958L52.3841 48.4145ZM53.3238 47.4978L55.0062 48.5792L55.3784 48.0002L53.696 46.9188L52.0136 45.8373L51.6414 46.4163L53.3238 47.4978ZM53.696 46.9188L55.3784 48.0002L55.7506 47.4212L54.0682 46.3397L52.3858 45.2583L52.0136 45.8373L53.696 46.9188ZM54.0682 46.3397L55.7506 47.4212C55.7545 47.4152 55.7544 47.4164 55.7492 47.422C55.744 47.4277 55.7361 47.4353 55.726 47.443C55.7159 47.4506 55.7071 47.4559 55.7014 47.4588C55.6959 47.4616 55.6965 47.4606 55.7056 47.4578L55.1013 45.5512L54.4971 43.6447C53.6154 43.9242 52.8881 44.4768 52.3858 45.2583L54.0682 46.3397ZM55.1013 45.5512L55.7056 47.4578L56.3666 47.2483L55.7623 45.3417L55.158 43.4352L54.4971 43.6447L55.1013 45.5512ZM55.7623 45.3417L56.3666 47.2483L57.0275 47.0388L56.4232 45.1323L55.8189 43.2257L55.158 43.4352L55.7623 45.3417ZM56.4232 45.1323L57.0275 47.0388C57.6503 46.8414 58.2348 46.559 58.7745 46.1923L57.6507 44.5379L56.5268 42.8835C56.3112 43.03 56.0774 43.1438 55.8189 43.2257L56.4232 45.1323ZM57.6507 44.5379L58.7745 46.1923L59.341 45.8074L58.2172 44.1531L57.0933 42.4987L56.5268 42.8835L57.6507 44.5379ZM58.2172 44.1531L59.341 45.8074L59.9076 45.4226L58.7837 43.7682L57.6598 42.1139L57.0933 42.4987L58.2172 44.1531ZM58.7837 43.7682L59.9076 45.4226C60.7555 44.8466 61.2718 43.9992 61.4457 43.0269L59.4769 42.6748L57.5082 42.3227C57.5065 42.332 57.5129 42.2918 57.5511 42.2315C57.5905 42.1694 57.6357 42.1303 57.6598 42.1139L58.7837 43.7682ZM59.4769 42.6748L61.4457 43.0269L61.5724 42.3183L59.6037 41.9662L57.6349 41.6141L57.5082 42.3227L59.4769 42.6748ZM59.6037 41.9662L61.5724 42.3183L61.6991 41.6097L59.7304 41.2576L57.7616 40.9055L57.6349 41.6141L59.6037 41.9662ZM59.7304 41.2576L61.6991 41.6097C61.778 41.1686 61.8633 40.7529 61.9545 40.3622L60.0069 39.9073L58.0593 39.4525C57.9508 39.9173 57.8517 40.4018 57.7616 40.9055L59.7304 41.2576ZM60.0069 39.9073L61.9545 40.3622L62.1044 39.7205L60.1568 39.2657L58.2092 38.8109L58.0593 39.4525L60.0069 39.9073ZM60.1568 39.2657L62.1044 39.7205L62.2542 39.0789L60.3066 38.6241L58.359 38.1693L58.2092 38.8109L60.1568 39.2657ZM60.3066 38.6241L62.2542 39.0789C62.2404 39.1382 62.2176 39.2007 62.1852 39.2614C62.153 39.3218 62.1174 39.3692 62.086 39.4034C62.0251 39.4699 61.9989 39.4674 62.076 39.4312L61.2253 37.6211L60.3746 35.8111C59.4825 36.2303 58.6366 36.9806 58.359 38.1693L60.3066 38.6241ZM61.2253 37.6211L62.076 39.4312L62.8448 39.0699L61.9941 37.2598L61.1435 35.4497L60.3746 35.8111L61.2253 37.6211ZM61.9941 37.2598L62.8448 39.0699L63.6137 38.7085L62.763 36.8985L61.9123 35.0884L61.1435 35.4497L61.9941 37.2598ZM62.763 36.8985L63.6137 38.7085C64.4847 38.2992 65.2933 37.5977 65.6402 36.5064L63.7342 35.9005L61.8282 35.2946C61.8421 35.2509 61.8619 35.2067 61.887 35.1653C61.912 35.1241 61.9373 35.0936 61.9569 35.0734C61.9951 35.0342 61.9974 35.0484 61.9123 35.0884L62.763 36.8985ZM63.7342 35.9005L65.6402 36.5064L65.8426 35.8698L63.9366 35.2639L62.0306 34.658L61.8282 35.2946L63.7342 35.9005ZM63.9366 35.2639L65.8426 35.8698L66.045 35.2332L64.139 34.6272L62.233 34.0213L62.0306 34.658L63.9366 35.2639ZM64.139 34.6272L66.045 35.2332C66.3231 34.3583 66.2754 33.4755 66.0238 32.6564L64.1119 33.2435L62.2 33.8306C62.2289 33.9245 62.2333 33.9795 62.2338 34.0021C62.234 34.0135 62.2333 34.0193 62.2331 34.0205C62.233 34.0213 62.2329 34.0216 62.2329 34.0215C62.233 34.0213 62.233 34.0212 62.233 34.0213L64.139 34.6272ZM64.1119 33.2435L66.0238 32.6564L65.7944 31.9092L63.8825 32.4963L61.9706 33.0834L62.2 33.8306L64.1119 33.2435ZM63.8825 32.4963L65.7944 31.9092L65.5649 31.1621L63.653 31.7492L61.7412 32.3363L61.9706 33.0834L63.8825 32.4963ZM63.653 31.7492L65.5649 31.1621C65.4836 30.8972 65.4955 30.7632 65.5031 30.7198L63.5328 30.3761L61.5626 30.0323C61.4245 30.8235 61.5166 31.605 61.7412 32.3363L63.653 31.7492ZM63.5328 30.3761L65.5031 30.7198L65.6123 30.0939L63.642 29.7501L61.6718 29.4063L61.5626 30.0323L63.5328 30.3761ZM63.642 29.7501L65.6123 30.0939L65.7215 29.4679L63.7513 29.1242L61.781 28.7804L61.6718 29.4063L63.642 29.7501ZM63.7513 29.1242L65.7215 29.4679C65.7129 29.5169 65.6986 29.5386 65.7051 29.5275C65.7138 29.5127 65.7486 29.4595 65.8383 29.3737L64.4555 27.9288L63.0727 26.4838C62.4591 27.071 61.9463 27.8333 61.781 28.7804L63.7513 29.1242ZM64.4555 27.9288L65.8383 29.3737L66.4333 28.8042L65.0505 27.3593L63.6677 25.9144L63.0727 26.4838L64.4555 27.9288ZM65.0505 27.3593L66.4333 28.8042L67.0284 28.2348L65.6455 26.7898L64.2627 25.3449L63.6677 25.9144L65.0505 27.3593ZM65.6455 26.7898L67.0284 28.2348C67.2274 28.0442 67.5677 27.7072 67.7875 27.2976C67.8628 27.1573 68.2162 26.4986 67.9723 25.6684C67.6481 24.5644 66.6774 24.2648 66.2898 24.2029L65.9739 26.1778L65.6581 28.1527C65.3593 28.1049 64.4416 27.8414 64.1344 26.7956C63.9076 26.0235 64.2422 25.4449 64.2628 25.4066C64.373 25.201 64.4603 25.1558 64.2627 25.3449L65.6455 26.7898ZM65.9739 26.1778L66.2898 24.2029L66.0232 24.1602L65.7073 26.1351L65.3914 28.11L65.6581 28.1527L65.9739 26.1778ZM65.7073 26.1351L65.6744 24.1354L65.1087 24.1447L65.1417 26.1444L65.1746 28.1442L65.7402 28.1348L65.7073 26.1351ZM65.1417 26.1444L67.0336 26.7928L67.0661 26.6982L65.1741 26.0498L63.2821 25.4015L63.2497 25.4961L65.1417 26.1444Z" fill="#3F2621"/>
<ellipse cx="38.422" cy="23.3843" rx="1.61157" ry="2.57851" fill="#3F2621"/>
<ellipse cx="49.0583" cy="28.3802" rx="1.61157" ry="2.41736" fill="#3F2621"/>
</svg>
